<?xml version="1.0" standalone="no"?>
<!DOCTYPE svg PUBLIC "-//W3C//DTD SVG 20010904//EN"
 "http://www.w3.org/TR/2001/REC-SVG-20010904/DTD/svg10.dtd">
<svg version="1.0" xmlns="http://www.w3.org/2000/svg"
 width="290.000000pt" height="290.000000pt" viewBox="0 0 290.000000 290.000000"
 preserveAspectRatio="xMidYMid meet">
<metadata>
Created by potrace 1.11, written by Peter Selinger 2001-2013
</metadata>
<g transform="translate(0.000000,290.000000) scale(0.100000,-0.100000)"
fill="#000000" stroke="none">
<path d="M1327 2880 c-247 -43 -462 -209 -561 -434 -23 -51 -36 -93 -53 -161
-11 -44 -12 -218 -2 -272 18 -99 60 -208 101 -265 l19 -28 -63 -1 c-35 0 -74
-2 -88 -5 -14 -2 -36 -6 -50 -8 -81 -12 -184 -54 -275 -112 -146 -92 -272
-275 -316 -454 -14 -60 -18 -228 -7 -300 39 -251 239 -489 485 -575 99 -34
115 -37 241 -40 210 -5 383 63 534 209 58 57 130 155 148 202 10 26 11 26 25
8 8 -10 15 -23 15 -27 0 -18 84 -129 132 -178 204 -200 492 -268 764 -180 247
80 439 293 497 553 14 64 17 255 4 303 -22 84 -30 110 -52 160 -119 268 -385
440 -687 444 l-67 1 29 48 c28 45 72 157 85 218 12 51 14 227 5 279 -40 212
-157 388 -333 503 -74 47 -164 88 -219 97 -18 3 -47 9 -63 14 -40 11 -188 11
-248 1z m170 -1527 c-13 -21 -27 -47 -30 -57 -4 -10 -9 -17 -10 -15 -2 2 -18
28 -35 57 l-32 52 65 0 65 0 -23 -37z"/>
</g>
</svg>
